<?xml version="1.0" encoding="utf-8"?><svg viewBox="0 0 64 64" xmlns="http://www.w3.org/2000/svg" xmlns:xlink="http://www.w3.org/1999/xlink"><style>:root>svg{display:none}:root>svg:target{display:block}</style><svg fill="none" viewBox="0 0 36 24" id="arrow" xmlns="http://www.w3.org/2000/svg"><path d="M22.645 2 34 12m0 0L22.645 22M34 12H2" stroke="#585858" stroke-width="3" stroke-linecap="round" stroke-linejoin="round"/></svg><svg fill="none" viewBox="0 0 18 12" id="block-arrow" xmlns="http://www.w3.org/2000/svg"><path d="M11.323 1 17 6m0 0-5.677 5M17 6H1" stroke="#fff" stroke-width="2" stroke-linecap="round" stroke-linejoin="round"/></svg><svg fill="none" viewBox="0 0 64 64" id="movie-tickets" xmlns="http://www.w3.org/2000/svg"><g clip-path="url(#ca)"><path d="M16.402 27.105c.33 0 .652-.134.884-.367a1.26 1.26 0 0 0 .366-.883c0-.33-.134-.652-.366-.884a1.26 1.26 0 0 0-.884-.366c-.33 0-.65.133-.883.366a1.259 1.259 0 0 0-.367.884c0 .328.134.65.367.883.232.233.555.367.883.367ZM34.309 25.45a1.261 1.261 0 0 0-.885-.367 1.26 1.26 0 0 0-.884.366 1.26 1.26 0 0 0-.366.884c0 .329.134.651.366.884.232.232.555.366.884.366.33 0 .651-.134.885-.366.232-.233.365-.554.365-.884 0-.329-.133-.651-.365-.884ZM37.8 23.208c.329 0 .651-.134.884-.366a1.26 1.26 0 0 0 .365-.884 1.26 1.26 0 0 0-.365-.884 1.26 1.26 0 0 0-.884-.366c-.33 0-.653.134-.885.366a1.26 1.26 0 0 0-.366.884c0 .329.134.651.366.884.232.232.555.366.885.366Z" fill="#346CD9"/><path d="M60.25 30.75h-3.488l6.14-6.14A3.728 3.728 0 0 0 64 21.958c0-1.002-.39-1.943-1.098-2.651l-5.57-5.57a1.25 1.25 0 0 0-1.767 0 3.724 3.724 0 0 1-2.651 1.1 3.725 3.725 0 0 1-2.652-1.1 3.724 3.724 0 0 1-1.098-2.65c0-1.002.39-1.944 1.098-2.652a1.25 1.25 0 0 0 0-1.768l-5.568-5.568A3.725 3.725 0 0 0 42.042 0c-1.002 0-1.943.39-2.651 1.099L18.745 21.744a1.25 1.25 0 1 0 1.768 1.767L41.158 2.866c.236-.236.55-.366.884-.366.334 0 .648.13.884.366l4.773 4.773a6.206 6.206 0 0 0-1.035 3.447c0 1.67.65 3.24 1.83 4.42a6.21 6.21 0 0 0 4.42 1.83 6.206 6.206 0 0 0 3.448-1.034l4.772 4.772c.487.487.487 1.28 0 1.768l-7.907 7.908h-5.48l4.106-4.108a1.25 1.25 0 0 0 0-1.767L39.125 12.147a1.25 1.25 0 0 0-1.768 0L18.755 30.75H3.75A3.754 3.754 0 0 0 0 34.5v7.874c0 .69.56 1.25 1.25 1.25A3.754 3.754 0 0 1 5 47.374a3.754 3.754 0 0 1-3.75 3.75c-.69 0-1.25.56-1.25 1.25v7.875A3.754 3.754 0 0 0 3.75 64h56.5A3.754 3.754 0 0 0 64 60.25v-7.875c0-.69-.56-1.25-1.25-1.25a3.754 3.754 0 0 1-3.75-3.75 3.754 3.754 0 0 1 3.75-3.75c.69 0 1.25-.56 1.25-1.25V34.5a3.754 3.754 0 0 0-3.75-3.75ZM38.24 14.798l10.96 10.96-4.99 4.992h-4.95l3.665-3.666a1.25 1.25 0 1 0-1.768-1.767l-5.433 5.432H22.291l15.95-15.95ZM61.5 41.25a6.26 6.26 0 0 0-5 6.124c0 3.018 2.15 5.544 5 6.125v6.75c0 .69-.56 1.25-1.25 1.25H3.75c-.69 0-1.25-.56-1.25-1.25V53.5c2.85-.581 5-3.107 5-6.125s-2.15-5.543-5-6.124V34.5c0-.69.56-1.25 1.25-1.25h56.5c.69 0 1.25.56 1.25 1.25v6.75Z" fill="#FF2E63"/><path d="M26.696 45.258a1.26 1.26 0 0 0 .366-.884c0-.329-.133-.651-.366-.883a1.26 1.26 0 0 0-.884-.367 1.26 1.26 0 0 0-.883.367 1.26 1.26 0 0 0-.367.883c0 .329.134.651.367.884.232.233.555.366.883.366.329 0 .652-.133.884-.366ZM39.071 45.258a1.26 1.26 0 0 0 .366-.884c0-.329-.133-.651-.366-.883a1.26 1.26 0 0 0-.884-.367 1.26 1.26 0 0 0-.883.367 1.26 1.26 0 0 0-.367.883c0 .329.134.651.367.884.232.233.555.366.883.366.329 0 .652-.133.884-.366ZM32.884 45.258a1.26 1.26 0 0 0 .366-.884c0-.329-.134-.651-.366-.883a1.26 1.26 0 0 0-.884-.367 1.26 1.26 0 0 0-.884.367 1.26 1.26 0 0 0-.366.883c0 .329.134.651.366.884.233.233.555.366.884.366.328 0 .651-.133.884-.366ZM19.625 45.624c.328 0 .651-.133.884-.366a1.26 1.26 0 0 0 .366-.884c0-.329-.134-.651-.366-.883a1.26 1.26 0 0 0-.884-.367 1.26 1.26 0 0 0-.884.367 1.26 1.26 0 0 0-.366.883c0 .329.134.651.366.884.233.233.555.366.884.366ZM45.259 45.258a1.26 1.26 0 0 0 .366-.884c0-.329-.134-.651-.366-.883a1.26 1.26 0 0 0-.884-.367 1.26 1.26 0 0 0-.884.367 1.26 1.26 0 0 0-.366.883c0 .329.134.651.366.884.233.233.555.366.884.366.328 0 .651-.133.884-.366Z" fill="#346CD9"/><path d="M19.625 51.624h24.75a1.25 1.25 0 0 0 0-2.5h-24.75a1.25 1.25 0 1 0 0 2.5Z" fill="#FF2E63"/><path d="M24.165 55.124a1.26 1.26 0 0 0-.884.367 1.26 1.26 0 0 0-.366.883c0 .329.134.651.366.884.233.233.555.366.884.366.33 0 .651-.133.884-.366a1.253 1.253 0 0 0-.884-2.134Z" fill="#346CD9"/><path d="M51 37.124H13c-.69 0-1.25.56-1.25 1.25v18c0 .69.56 1.25 1.25 1.25h5.207a1.25 1.25 0 0 0 0-2.5H14.25v-15.5h35.5v15.5H29.457a1.25 1.25 0 1 0 0 2.5H51c.69 0 1.25-.56 1.25-1.25v-18c0-.69-.56-1.25-1.25-1.25Z" fill="#FF2E63"/></g><defs><clipPath id="ca"><path fill="#fff" d="M0 0h64v64H0z"/></clipPath></defs></svg><svg fill="none" viewBox="0 0 64 64" id="online-payment" xmlns="http://www.w3.org/2000/svg"><g clip-path="url(#da)"><path d="M23.581 31.998H16v2.667h32v-2.667h-7.543a14.584 14.584 0 0 0 5.21-6.666H52.8l4.399 4.892c.253.28.613.441.992.441h4.476V28h-3.883l-4.403-4.892a1.334 1.334 0 0 0-.992-.442H44a1.333 1.333 0 0 1-1.333-1.333 4 4 0 0 1 4-4H48c.736 0 1.333.597 1.333 1.333 0 .737.597 1.334 1.334 1.334h8v-2.667h-6.895A4.008 4.008 0 0 0 48 14.665h-1.333c-.33 0-.653.026-.969.072a14.717 14.717 0 0 0-2.38-4.069l2.733-1.479 5.158 3.8 1.582-2.152-5.842-4.301a1.333 1.333 0 0 0-1.424-.099l-10.768 5.828A1.868 1.868 0 0 1 32 10.625a1.852 1.852 0 0 1 .85-1.575l13.294-6.312 16.21 3.894.62-2.592-16.666-4a1.31 1.31 0 0 0-.883.092L34.145 5.488c-.7-.103-1.406-.155-2.114-.156-8.1-.008-14.674 6.552-14.682 14.652-.005 4.966 2.46 9.357 6.233 12.014Zm-3.329-14.387c1.02-5.02 5.034-8.665 9.803-9.454a4.528 4.528 0 0 0-.68 3.2A5.333 5.333 0 0 0 32 21.332a2.667 2.667 0 1 1-2.666 2.665h-2.666c0 2.486 1.7 4.574 4 5.166v1.501h2.666v-1.501A5.333 5.333 0 0 0 32 18.665a2.667 2.667 0 0 1-1.435-4.912 4.519 4.519 0 0 0 4.102 1.339v2.24h2.666v-3.425l3.586-1.94a12.038 12.038 0 0 1 2.268 3.681A6.67 6.67 0 0 0 40 21.332a4.001 4.001 0 0 0 2.84 3.828A11.95 11.95 0 0 1 32 31.998c-.798 0-1.594-.08-2.376-.24-6.495-1.318-10.69-7.653-9.372-14.147Z" fill="#346CD9"/><path d="M61.333 33.332v16c0 .736-.597 1.333-1.333 1.333H4a1.333 1.333 0 0 1-1.333-1.333V11.998c0-.736.597-1.333 1.333-1.333h13.333V7.998H4a4 4 0 0 0-4 4v37.334a4 4 0 0 0 4 4h17.842l-4 8h-3.175v2.666h34.666v-2.666h-3.176l-4-8H60a4 4 0 0 0 4-4v-16h-2.667Zm-18.157 28H20.823l4-8h14.353l4 8Z" fill="#FF2E63"/><path d="M5.333 41.332v5.333c0 .736.597 1.334 1.334 1.334H12v-2.667H8v-4H5.333ZM17.333 45.332h-2.666v2.666h2.666v-2.666ZM56 45.332h-4v2.666h5.333c.737 0 1.334-.596 1.334-1.333v-5.333H56v4ZM49.333 45.332h-2.666v2.666h2.666v-2.666ZM14.667 13.332H9.333a4 4 0 0 0-4 4v21.333H8V17.332c0-.737.597-1.334 1.333-1.334h5.334v-2.666ZM44 45.332H20v2.666h24v-2.666Z" fill="#FF2E63"/></g><defs><clipPath id="da"><path fill="#fff" d="M0 0h64v64H0z"/></clipPath></defs></svg><svg fill="none" viewBox="0 0 64 64" id="touchscreen" xmlns="http://www.w3.org/2000/svg"><g clip-path="url(#ea)"><path d="M20 45.333A1.334 1.334 0 0 1 18.667 44V13.333A5.339 5.339 0 0 1 24 8a5.339 5.339 0 0 1 5.333 5.333v28a1.334 1.334 0 0 1-2.666 0v-28a2.668 2.668 0 0 0-5.334 0V44c0 .736-.597 1.333-1.333 1.333Z" fill="#FF2E63"/><path d="M36 42.667a1.334 1.334 0 0 1-1.333-1.334v-12a2.668 2.668 0 0 0-5.334 0 1.334 1.334 0 0 1-2.666 0A5.339 5.339 0 0 1 32 24a5.339 5.339 0 0 1 5.333 5.333v12c0 .736-.597 1.334-1.333 1.334Z" fill="#FF2E63"/><path d="M44 42.667a1.334 1.334 0 0 1-1.333-1.334V32a2.668 2.668 0 0 0-5.334 0 1.334 1.334 0 0 1-2.666 0A5.339 5.339 0 0 1 40 26.667 5.339 5.339 0 0 1 45.333 32v9.333c0 .736-.597 1.334-1.333 1.334Z" fill="#FF2E63"/><path d="M41.333 64H25.901c-4.488 0-9.117-1.955-12.389-5.23-3.61-3.613-5.517-8.767-5.51-14.9.003-5.073 4.246-9.203 9.454-9.203H20a1.334 1.334 0 0 1 0 2.666h-2.544c-3.739 0-6.784 2.936-6.787 6.539-.005 5.488 1.587 9.864 4.728 13.013 3.278 3.28 7.574 4.448 10.504 4.448h15.432c5.147 0 9.334-4.186 9.334-9.333V34.667a2.668 2.668 0 0 0-5.334 0 1.334 1.334 0 0 1-2.666 0A5.339 5.339 0 0 1 48 29.333a5.339 5.339 0 0 1 5.333 5.334V52c0 6.616-5.384 12-12 12Z" fill="#FF2E63"/><path d="M33.333 22.187a1.33 1.33 0 0 1-1.03-2.176c1.545-1.894 2.364-4.203 2.364-6.678 0-5.882-4.784-10.666-10.667-10.666S13.333 7.45 13.333 13.333c0 2.475.819 4.784 2.366 6.678a1.33 1.33 0 0 1-.187 1.874 1.328 1.328 0 0 1-1.875-.186c-1.944-2.376-2.97-5.27-2.97-8.366C10.667 5.981 16.648 0 24 0s13.333 5.981 13.333 13.333c0 3.096-1.026 5.99-2.968 8.366a1.327 1.327 0 0 1-1.032.488Z" fill="#346CD9"/></g><defs><clipPath id="ea"><path fill="#fff" d="M0 0h64v64H0z"/></clipPath></defs></svg><svg fill="none" viewBox="0 0 64 64" id="winner" xmlns="http://www.w3.org/2000/svg"><g clip-path="url(#fa)"><path d="m58.552 19.8-13.907-2.464-6.884-12.663a6.544 6.544 0 0 0-2.677-2.653 6.573 6.573 0 0 0-8.883 2.704l-6.64 12.464-2.493.463a1.25 1.25 0 0 0 .456 2.458l2.31-.429L21.52 22a16.33 16.33 0 0 0-4.732 6.439l-13.6-4.42c.16-.24.348-.465.561-.67a4.042 4.042 0 0 1 2.256-1.099l.458-.085a1.25 1.25 0 1 0-.458-2.458l-.437.081a6.529 6.529 0 0 0-3.552 1.759A6.529 6.529 0 0 0 0 26.156a6.53 6.53 0 0 0 1.836 4.685l9.808 10.173-1.82 13.877a6.52 6.52 0 0 0 .54 4.16 6.591 6.591 0 0 0 5.928 3.7c.966 0 1.946-.213 2.872-.663l12.69-6.178 13.02 6.203a6.553 6.553 0 0 0 3.732.569 6.582 6.582 0 0 0 5.611-7.415l-1.955-13.993 9.677-10.207a6.525 6.525 0 0 0 1.961-3.651c.624-3.576-1.777-6.993-5.35-7.616Zm2.084 3.976-13.797 4.483a16.323 16.323 0 0 0-4.27-5.927l1.817-2.503 13.733 2.433a4.066 4.066 0 0 1 2.517 1.514ZM49.812 41.798l1.93 13.813a4.057 4.057 0 0 1-.657 2.83l-8.508-11.71a16.328 16.328 0 0 0 4.255-5.902l2.98.969ZM35.565 5.868l6.794 12.498-1.789 2.462a16.144 16.144 0 0 0-7.47-2.495V3.9a4.068 4.068 0 0 1 2.465 1.967ZM21.852 18.205 28.407 5.9a4.05 4.05 0 0 1 2.192-1.903v14.336a16.134 16.134 0 0 0-7.035 2.229l-1.712-2.357Zm9.998 2.58c7.582 0 13.75 6.168 13.75 13.75s-6.168 13.75-13.75 13.75c-7.581 0-13.75-6.168-13.75-13.75s6.169-13.75 13.75-13.75Zm-18.784 37.9a4.082 4.082 0 0 1-.783-3.336l.015-.09L14.1 41.526l2.695-.876a16.331 16.331 0 0 0 4.715 6.413l-8.444 11.622ZM3.637 29.106a4.042 4.042 0 0 1-1.134-2.681l13.526 4.395a16.239 16.239 0 0 0-.429 3.714c0 1.284.15 2.534.434 3.733l-2.714.882-9.683-10.043ZM18.07 59.84a4.066 4.066 0 0 1-2.932.246l8.416-11.584a16.137 16.137 0 0 0 7.045 2.235v3.004L18.07 59.84Zm30.195.365a4.059 4.059 0 0 1-2.314-.349l-12.852-6.122v-2.996a16.141 16.141 0 0 0 7.481-2.503l8.54 11.755a4.07 4.07 0 0 1-.855.215Zm13.173-33.22a4.046 4.046 0 0 1-1.233 2.281 1.204 1.204 0 0 0-.054.054l-9.574 10.098-2.956-.961c.312-1.257.48-2.57.48-3.922 0-1.345-.166-2.652-.476-3.903l13.87-4.507c.012.283-.006.571-.057.86Z" fill="#FF2E63"/><path d="M31.85 45.785c6.204 0 11.25-5.047 11.25-11.25s-5.046-11.25-11.25-11.25c-6.203 0-11.25 5.047-11.25 11.25s5.047 11.25 11.25 11.25Zm0-20c4.825 0 8.75 3.925 8.75 8.75s-3.925 8.75-8.75 8.75-8.75-3.925-8.75-8.75 3.925-8.75 8.75-8.75Z" fill="#346CD9"/><path d="M30.464 38.285a1.25 1.25 0 0 0 0 2.5h2.772a1.25 1.25 0 0 0 0-2.5H33.1v-8.75a1.25 1.25 0 0 0-1.875-1.083l-1.386.8a1.25 1.25 0 0 0 .761 2.326v6.707h-.136Z" fill="#346CD9"/><path d="M11.765 21.158a1.25 1.25 0 0 0 0-2.5 1.25 1.25 0 1 0 0 2.5Z" fill="#FF2E63"/></g><defs><clipPath id="fa"><path fill="#fff" d="M0 0h64v64H0z"/></clipPath></defs></svg></svg>